<?xml version="1.0" encoding="UTF-8" standalone="no"?>
<!DOCTYPE svg PUBLIC "-//W3C//DTD SVG 1.1//EN"
 "http://www.w3.org/Graphics/SVG/1.1/DTD/svg11.dtd">
<!-- Generated by graphviz version 2.40.1 (20161225.0304)
 -->
<!-- Title: G Pages: 1 -->
<svg width="258pt" height="478pt"
 viewBox="0.00 0.00 258.00 478.00" xmlns="http://www.w3.org/2000/svg" xmlns:xlink="http://www.w3.org/1999/xlink">
<g id="graph0" class="graph" transform="scale(1 1) rotate(0) translate(4 474)">
<title>G</title>
<polygon fill="#ffffff" stroke="transparent" points="-4,4 -4,-474 254,-474 254,4 -4,4"/>
<!-- A0 -->
<g id="node1" class="node">
<title>A0</title>
<polygon fill="none" stroke="#000000" points="37,-398 37,-430 102,-430 102,-398 37,-398"/>
<text text-anchor="start" x="47.964" y="-411" font-family="Helvetica,sans-Serif" font-size="10.00" fill="#000000">+I:IDance</text>
<polygon fill="none" stroke="#000000" points="37,-330 37,-398 102,-398 102,-330 37,-330"/>
<text text-anchor="start" x="55.893" y="-379" font-family="Helvetica,sans-Serif" font-size="10.00" fill="#000000">Turn()</text>
<text text-anchor="start" x="46.7195" y="-367" font-family="Helvetica,sans-Serif" font-size="10.00" fill="#000000"> Balance()</text>
<text text-anchor="start" x="53.9475" y="-343" font-family="Helvetica,sans-Serif" font-size="10.00" fill="#000000">Jump()</text>
</g>
<!-- A2 -->
<g id="node3" class="node">
<title>A2</title>
<polygon fill="none" stroke="#000000" points="0,-208 0,-240 116,-240 116,-208 0,-208"/>
<text text-anchor="start" x="42.5785" y="-221" font-family="Helvetica,sans-Serif" font-size="10.00" fill="#000000">+Ballet</text>
<polygon fill="none" stroke="#000000" points="0,-188 0,-208 116,-208 116,-188 0,-188"/>
<polygon fill="none" stroke="#000000" points="0,0 0,-188 116,-188 116,0 0,0"/>
<text text-anchor="start" x="28.9655" y="-169" font-family="Helvetica,sans-Serif" font-size="10.00" fill="#000000">+name:string</text>
<text text-anchor="start" x="32.5805" y="-145" font-family="Helvetica,sans-Serif" font-size="10.00" fill="#000000">+blisters:int</text>
<text text-anchor="start" x="27.717" y="-121" font-family="Helvetica,sans-Serif" font-size="10.00" fill="#000000">&#45;pirouettes:int</text>
<text text-anchor="start" x="21.463" y="-97" font-family="Helvetica,sans-Serif" font-size="10.00" fill="#000000">+pirouettes:int:w</text>
<text text-anchor="start" x="41.4735" y="-85" font-family="Helvetica,sans-Serif" font-size="10.00" fill="#000000">+Turn()</text>
<text text-anchor="start" x="32.3" y="-73" font-family="Helvetica,sans-Serif" font-size="10.00" fill="#000000"> +Balance()</text>
<text text-anchor="start" x="39.528" y="-49" font-family="Helvetica,sans-Serif" font-size="10.00" fill="#000000">+Jump()</text>
<text text-anchor="start" x="9.513" y="-25" font-family="Helvetica,sans-Serif" font-size="10.00" fill="#000000">+WhatShoeType(type</text>
<text text-anchor="start" x="38.5545" y="-13" font-family="Helvetica,sans-Serif" font-size="10.00" fill="#000000">:string):o</text>
</g>
<!-- A0&#45;&gt;A2 -->
<g id="edge1" class="edge">
<title>A0&#45;&gt;A2</title>
<path fill="none" stroke="#000000" d="M66.4454,-319.6178C65.4393,-295.837 64.2466,-267.6475 63.0794,-240.0587"/>
<polygon fill="none" stroke="#000000" points="62.9594,-320.0263 66.8791,-329.8694 69.9532,-319.7303 62.9594,-320.0263"/>
</g>
<!-- A3 -->
<g id="node4" class="node">
<title>A3</title>
<polygon fill="none" stroke="#000000" points="134,-196 134,-228 250,-228 250,-196 134,-196"/>
<text text-anchor="start" x="180.467" y="-209" font-family="Helvetica,sans-Serif" font-size="10.00" fill="#000000">+Tap</text>
<polygon fill="none" stroke="#000000" points="134,-116 134,-196 250,-196 250,-116 134,-116"/>
<text text-anchor="start" x="162.9655" y="-177" font-family="Helvetica,sans-Serif" font-size="10.00" fill="#000000">+name:string</text>
<text text-anchor="start" x="172.964" y="-153" font-family="Helvetica,sans-Serif" font-size="10.00" fill="#000000">+taps:int</text>
<text text-anchor="start" x="155.8825" y="-129" font-family="Helvetica,sans-Serif" font-size="10.00" fill="#000000">&#45;heelOrToe:bool</text>
<polygon fill="none" stroke="#000000" points="134,-12 134,-116 250,-116 250,-12 134,-12"/>
<text text-anchor="start" x="156.8625" y="-97" font-family="Helvetica,sans-Serif" font-size="10.00" fill="#000000"> +HeelOrToe():r</text>
<text text-anchor="start" x="167.6895" y="-73" font-family="Helvetica,sans-Serif" font-size="10.00" fill="#000000">+Balance()</text>
<text text-anchor="start" x="172.1385" y="-61" font-family="Helvetica,sans-Serif" font-size="10.00" fill="#000000"> +Jump()</text>
<text text-anchor="start" x="143.513" y="-37" font-family="Helvetica,sans-Serif" font-size="10.00" fill="#000000">+WhatShoeType(type</text>
<text text-anchor="start" x="172.5545" y="-25" font-family="Helvetica,sans-Serif" font-size="10.00" fill="#000000">:string):o</text>
</g>
<!-- A0&#45;&gt;A3 -->
<g id="edge2" class="edge">
<title>A0&#45;&gt;A3</title>
<path fill="none" stroke="#000000" d="M97.0053,-320.8019C109.9942,-293.3455 125.8515,-259.826 140.861,-228.0986"/>
<polygon fill="none" stroke="#000000" points="93.8282,-319.3331 92.7156,-329.8694 100.1559,-322.3266 93.8282,-319.3331"/>
</g>
<!-- A1 -->
<g id="node2" class="node">
<title>A1</title>
<polygon fill="none" stroke="#000000" points="125,-438 125,-470 247,-470 247,-438 125,-438"/>
<text text-anchor="start" x="163.9085" y="-451" font-family="Helvetica,sans-Serif" font-size="10.00" fill="#000000">+A:Dance</text>
<polygon fill="none" stroke="#000000" points="125,-382 125,-438 247,-438 247,-382 125,-382"/>
<text text-anchor="start" x="148.7715" y="-419" font-family="Helvetica,sans-Serif" font-size="10.00" fill="#000000">&#45;shoeType:string</text>
<text text-anchor="start" x="145.3015" y="-395" font-family="Helvetica,sans-Serif" font-size="10.00" fill="#000000">+musicType:string</text>
<polygon fill="none" stroke="#000000" points="125,-290 125,-382 247,-382 247,-290 125,-290"/>
<text text-anchor="start" x="134.734" y="-363" font-family="Helvetica,sans-Serif" font-size="10.00" fill="#000000"> +WhatShoeType(type:</text>
<text text-anchor="start" x="168.2235" y="-351" font-family="Helvetica,sans-Serif" font-size="10.00" fill="#000000">string):v</text>
<text text-anchor="start" x="150.581" y="-327" font-family="Helvetica,sans-Serif" font-size="10.00" fill="#000000">+GoToClass():a</text>
<text text-anchor="start" x="149.466" y="-303" font-family="Helvetica,sans-Serif" font-size="10.00" fill="#000000">+LeaveClass():a</text>
</g>
<!-- A1&#45;&gt;A2 -->
<g id="edge3" class="edge">
<title>A1&#45;&gt;A2</title>
<path fill="none" stroke="#000000" stroke-dasharray="5,2" d="M137.111,-280.6942C130.234,-266.7253 123.1101,-252.2549 116.0822,-237.9795"/>
<polygon fill="#000000" stroke="#000000" points="141.591,-289.7943 133.1369,-282.8102 139.3826,-285.3084 137.1741,-280.8226 137.1741,-280.8226 137.1741,-280.8226 139.3826,-285.3084 141.2114,-278.835 141.591,-289.7943 141.591,-289.7943"/>
</g>
<!-- A1&#45;&gt;A3 -->
<g id="edge4" class="edge">
<title>A1&#45;&gt;A3</title>
<path fill="none" stroke="#000000" stroke-dasharray="5,2" d="M188.3198,-279.4746C188.706,-262.7408 189.108,-245.3192 189.4985,-228.3998"/>
<polygon fill="#000000" stroke="#000000" points="188.0817,-289.7943 183.8137,-279.6931 188.1971,-284.7956 188.3125,-279.797 188.3125,-279.797 188.3125,-279.797 188.1971,-284.7956 192.8113,-279.9008 188.0817,-289.7943 188.0817,-289.7943"/>
</g>
</g>
</svg>
