<?xml version="1.0" encoding="UTF-8" standalone="no"?>
<!DOCTYPE svg PUBLIC "-//W3C//DTD SVG 1.1//EN"
 "http://www.w3.org/Graphics/SVG/1.1/DTD/svg11.dtd">
<!-- Generated by graphviz version 2.40.1 (20161225.0304)
 -->
<!-- Title: G Pages: 1 -->
<svg width="702pt" height="382pt"
 viewBox="0.00 0.00 701.98 382.00" xmlns="http://www.w3.org/2000/svg" xmlns:xlink="http://www.w3.org/1999/xlink">
<g id="graph0" class="graph" transform="scale(1 1) rotate(0) translate(4 378)">
<title>G</title>
<polygon fill="#ffffff" stroke="transparent" points="-4,4 -4,-378 697.9755,-378 697.9755,4 -4,4"/>
<!-- A0 -->
<g id="node1" class="node">
<title>A0</title>
<polygon fill="none" stroke="#000000" points="0,-290 0,-322 96,-322 96,-290 0,-290"/>
<text text-anchor="start" x="9.792" y="-303" font-family="Helvetica,sans-Serif" font-size="10.00" fill="#000000">+IDanceInterface</text>
<polygon fill="none" stroke="#000000" points="0,-222 0,-290 96,-290 96,-222 0,-222"/>
<text text-anchor="start" x="34.393" y="-271" font-family="Helvetica,sans-Serif" font-size="10.00" fill="#000000">Turn()</text>
<text text-anchor="start" x="25.2195" y="-259" font-family="Helvetica,sans-Serif" font-size="10.00" fill="#000000"> Balance()</text>
<text text-anchor="start" x="32.4475" y="-235" font-family="Helvetica,sans-Serif" font-size="10.00" fill="#000000">Jump()</text>
</g>
<!-- A1 -->
<g id="node2" class="node">
<title>A1</title>
<polygon fill="none" stroke="#000000" points="114,-324 114,-356 208,-356 208,-324 114,-324"/>
<text text-anchor="start" x="140.298" y="-337" font-family="Helvetica,sans-Serif" font-size="10.00" fill="#000000">+ADance</text>
<polygon fill="none" stroke="#000000" points="114,-268 114,-324 208,-324 208,-268 114,-268"/>
<text text-anchor="start" x="123.7715" y="-305" font-family="Helvetica,sans-Serif" font-size="10.00" fill="#000000">&#45;shoeType:string</text>
<text text-anchor="start" x="135.5805" y="-281" font-family="Helvetica,sans-Serif" font-size="10.00" fill="#000000">+blisters:int</text>
<polygon fill="none" stroke="#000000" points="114,-188 114,-268 208,-268 208,-188 114,-188"/>
<text text-anchor="start" x="130.5755" y="-249" font-family="Helvetica,sans-Serif" font-size="10.00" fill="#000000"> +ShoeType()</text>
<text text-anchor="start" x="125.581" y="-225" font-family="Helvetica,sans-Serif" font-size="10.00" fill="#000000">+GoToClass():a</text>
<text text-anchor="start" x="128.635" y="-201" font-family="Helvetica,sans-Serif" font-size="10.00" fill="#000000">+LeaveClass()</text>
</g>
<!-- A2 -->
<g id="node3" class="node">
<title>A2</title>
<polygon fill="none" stroke="#000000" points="227,-312 227,-344 404,-344 404,-312 227,-312"/>
<text text-anchor="start" x="300.0785" y="-325" font-family="Helvetica,sans-Serif" font-size="10.00" fill="#000000">+Ballet</text>
<polygon fill="none" stroke="#000000" points="227,-292 227,-312 404,-312 404,-292 227,-292"/>
<polygon fill="none" stroke="#000000" points="227,-200 227,-292 404,-292 404,-200 227,-200"/>
<text text-anchor="start" x="286.4655" y="-273" font-family="Helvetica,sans-Serif" font-size="10.00" fill="#000000">+name:string</text>
<text text-anchor="start" x="266.335" y="-249" font-family="Helvetica,sans-Serif" font-size="10.00" fill="#000000">&#45;creditCardNumber:int</text>
<text text-anchor="start" x="236.886" y="-237" font-family="Helvetica,sans-Serif" font-size="10.00" fill="#000000"> +creditCardNumber:int:w +Turn():v</text>
<text text-anchor="start" x="285.9105" y="-225" font-family="Helvetica,sans-Serif" font-size="10.00" fill="#000000"> +Balance():v</text>
<text text-anchor="start" x="291.749" y="-213" font-family="Helvetica,sans-Serif" font-size="10.00" fill="#000000"> +Jump():v</text>
</g>
<!-- A3 -->
<g id="node4" class="node">
<title>A3</title>
<polygon fill="none" stroke="#000000" points="422,-342 422,-374 573,-374 573,-342 422,-342"/>
<text text-anchor="start" x="470.415" y="-355" font-family="Helvetica,sans-Serif" font-size="10.00" fill="#000000">+A:HotDrink</text>
<polygon fill="none" stroke="#000000" points="422,-250 422,-342 573,-342 573,-250 422,-250"/>
<text text-anchor="start" x="469.016" y="-323" font-family="Helvetica,sans-Serif" font-size="10.00" fill="#000000">+instant:bool</text>
<text text-anchor="start" x="474.8595" y="-311" font-family="Helvetica,sans-Serif" font-size="10.00" fill="#000000">+milk:bool</text>
<text text-anchor="start" x="472.4945" y="-299" font-family="Helvetica,sans-Serif" font-size="10.00" fill="#000000">&#45;byte:sugar</text>
<text text-anchor="start" x="468.186" y="-287" font-family="Helvetica,sans-Serif" font-size="10.00" fill="#000000">+brand:string</text>
<text text-anchor="start" x="470.69" y="-275" font-family="Helvetica,sans-Serif" font-size="10.00" fill="#000000"> +size:string</text>
<text text-anchor="start" x="449.578" y="-263" font-family="Helvetica,sans-Serif" font-size="10.00" fill="#000000"> +customer:Customer</text>
<polygon fill="none" stroke="#000000" points="422,-170 422,-250 573,-250 573,-170 422,-170"/>
<text text-anchor="start" x="470.4205" y="-231" font-family="Helvetica,sans-Serif" font-size="10.00" fill="#000000"> +HotDrink()</text>
<text text-anchor="start" x="431.8035" y="-207" font-family="Helvetica,sans-Serif" font-size="10.00" fill="#000000">+HotDrink(brand:string):string</text>
<text text-anchor="start" x="436.2315" y="-195" font-family="Helvetica,sans-Serif" font-size="10.00" fill="#000000"> +AddSugar(amount:byte):v</text>
<text text-anchor="start" x="471.2455" y="-183" font-family="Helvetica,sans-Serif" font-size="10.00" fill="#000000"> +Steam():a</text>
</g>
<!-- A4 -->
<g id="node5" class="node">
<title>A4</title>
<polygon fill="none" stroke="#000000" points="397,-88 397,-120 597,-120 597,-88 397,-88"/>
<text text-anchor="start" x="464.906" y="-101" font-family="Helvetica,sans-Serif" font-size="10.00" fill="#000000">+CupOfCoffee</text>
<polygon fill="none" stroke="#000000" points="397,-56 397,-88 597,-88 597,-56 397,-56"/>
<text text-anchor="start" x="458.237" y="-69" font-family="Helvetica,sans-Serif" font-size="10.00" fill="#000000">+beanType:string</text>
<polygon fill="none" stroke="#000000" points="397,0 397,-56 597,-56 597,0 397,0"/>
<text text-anchor="start" x="461.577" y="-37" font-family="Helvetica,sans-Serif" font-size="10.00" fill="#000000">+CupOfCoffee()</text>
<text text-anchor="start" x="406.843" y="-25" font-family="Helvetica,sans-Serif" font-size="10.00" fill="#000000">+CupOfCoffee(brand:string):base(brand)</text>
<text text-anchor="start" x="470.7455" y="-13" font-family="Helvetica,sans-Serif" font-size="10.00" fill="#000000"> +Steam():o</text>
</g>
<!-- A3&#45;&gt;A4 -->
<g id="edge2" class="edge">
<title>A3&#45;&gt;A4</title>
<path fill="none" stroke="#000000" stroke-dasharray="5,2" d="M497,-159.401C497,-145.9168 497,-132.5754 497,-120.2544"/>
<polygon fill="#000000" stroke="#000000" points="497,-169.7259 492.5001,-159.7258 497,-164.7259 497.0001,-159.7259 497.0001,-159.7259 497.0001,-159.7259 497,-164.7259 501.5001,-159.7259 497,-169.7259 497,-169.7259"/>
</g>
<!-- A5 -->
<g id="node6" class="node">
<title>A5</title>
<polygon fill="none" stroke="#000000" points="693.951,-290 614.049,-290 614.049,-254 693.951,-254 693.951,-290"/>
<text text-anchor="middle" x="654" y="-269" font-family="Helvetica,sans-Serif" font-size="10.00" fill="#000000">+ICustomer</text>
</g>
<!-- A6 -->
<g id="node7" class="node">
<title>A6</title>
<polygon fill="none" stroke="#000000" points="692.6722,-78 615.3278,-78 615.3278,-42 692.6722,-42 692.6722,-78"/>
<text text-anchor="middle" x="654" y="-57" font-family="Helvetica,sans-Serif" font-size="10.00" fill="#000000">+Customer</text>
</g>
<!-- A5&#45;&gt;A6 -->
<g id="edge1" class="edge">
<title>A5&#45;&gt;A6</title>
<path fill="none" stroke="#000000" d="M654,-243.8507C654,-199.5966 654,-114.9918 654,-78.0293"/>
<polygon fill="none" stroke="#000000" points="650.5001,-243.925 654,-253.925 657.5001,-243.925 650.5001,-243.925"/>
</g>
</g>
</svg>
